<?xml version="1.0" encoding="UTF-8" standalone="no"?><!-- Generator: Gravit.io --><svg xmlns="http://www.w3.org/2000/svg" xmlns:xlink="http://www.w3.org/1999/xlink" style="isolation:isolate" viewBox="0 0 273 273" width="273pt" height="273pt"><defs><clipPath id="_clipPath_l0YmtPLZZMUXPJr6LNY7HjfNcNsf2dgP"><rect width="273" height="273"/></clipPath></defs><g clip-path="url(#_clipPath_l0YmtPLZZMUXPJr6LNY7HjfNcNsf2dgP)"><mask id="_mask_zS3pFdz8s3v1ZHlD3GxO0vZreIx5YrbZ"><circle vector-effect="non-scaling-stroke" cx="136.5" cy="136.5" r="128.99999999999994" fill="white" stroke="none"/></mask><circle vector-effect="non-scaling-stroke" cx="136.5" cy="136.5" r="128.99999999999994" fill="rgb(17,17,31)"/><circle vector-effect="non-scaling-stroke" cx="136.5" cy="136.5" r="128.99999999999994" fill="rgb(17,17,31)" mask="url(#_mask_zS3pFdz8s3v1ZHlD3GxO0vZreIx5YrbZ)" stroke-width="12" stroke="rgb(89,203,232)" stroke-linejoin="miter" stroke-linecap="square" stroke-miterlimit="3"/><path d=" M 52 183.5 L 52 92.5 L 138 44.5 L 221 92.5 L 221 183.5 L 138 230.5 L 52 183.5" fill="none" vector-effect="non-scaling-stroke" stroke-width="6" stroke="rgb(255,255,255)" stroke-linejoin="miter" stroke-linecap="square" stroke-miterlimit="3"/><path d=" M 91 115.5 L 137 92.5 L 137 77.25 L 137 53.5" fill="none" vector-effect="non-scaling-stroke" stroke-width="6" stroke="rgb(89,203,232)" stroke-linejoin="miter" stroke-linecap="square" stroke-miterlimit="3"/><path d=" M 91 115.5 L 91 161.5 L 137.523 183.5 L 180 161.5 L 180 115.5 L 137.523 92.5" fill="rgb(89,203,232)" vector-effect="non-scaling-stroke" stroke-width="6" stroke="rgb(89,203,232)" stroke-linejoin="miter" stroke-linecap="square" stroke-miterlimit="3"/><path d=" M 52 92.5 L 138 139.5 L 221 92.5" fill="none" vector-effect="non-scaling-stroke" stroke-width="6" stroke="rgb(255,255,255)" stroke-linejoin="miter" stroke-linecap="square" stroke-miterlimit="3"/><line x1="138" y1="139.5" x2="138" y2="230.5" vector-effect="non-scaling-stroke" stroke-width="6" stroke="rgb(255,255,255)" stroke-linejoin="miter" stroke-linecap="square" stroke-miterlimit="3"/><circle vector-effect="non-scaling-stroke" cx="136.9999999999999" cy="46.50000000000003" r="10" fill="rgb(89,203,232)"/><circle vector-effect="non-scaling-stroke" cx="136.49999999999977" cy="226.49999999999997" r="10" fill="rgb(89,203,232)"/><circle vector-effect="non-scaling-stroke" cx="221.0000000000001" cy="184.49999999999991" r="10" fill="rgb(89,203,232)"/><circle vector-effect="non-scaling-stroke" cx="51.99999999999985" cy="184.4999999999998" r="10" fill="rgb(89,203,232)"/><circle vector-effect="non-scaling-stroke" cx="51.99999999999985" cy="93.49999999999991" r="10" fill="rgb(89,203,232)"/><circle vector-effect="non-scaling-stroke" cx="221.0000000000001" cy="93.49999999999991" r="10" fill="rgb(89,203,232)"/></g></svg>