<?xml version="1.0" encoding="UTF-8" standalone="no"?><!-- Generator: Gravit.io --><svg xmlns="http://www.w3.org/2000/svg" xmlns:xlink="http://www.w3.org/1999/xlink" style="isolation:isolate" viewBox="0 0 159 161" width="159pt" height="161pt"><defs><clipPath id="_clipPath_PbmGu4zHL0n5DScuCS1xMiTA57qQeqzR"><rect width="159" height="161"/></clipPath></defs><g clip-path="url(#_clipPath_PbmGu4zHL0n5DScuCS1xMiTA57qQeqzR)"><mask id="_mask_JmswG73dzyVAEFNVkRa3bxSmnr8n2Qfm"><circle vector-effect="non-scaling-stroke" cx="79.5" cy="80.5" r="75" fill="white" stroke="none"/></mask><circle vector-effect="non-scaling-stroke" cx="79.5" cy="80.5" r="75" fill="rgb(17,17,31)"/><circle vector-effect="non-scaling-stroke" cx="79.5" cy="80.5" r="75" fill="rgb(17,17,31)" mask="url(#_mask_JmswG73dzyVAEFNVkRa3bxSmnr8n2Qfm)" stroke-width="6" stroke="rgb(89,203,232)" stroke-linejoin="miter" stroke-linecap="square" stroke-miterlimit="3"/><path d=" M 30.372 107.826 L 30.372 54.919 L 80.372 27.012 L 128.628 54.919 L 128.628 107.826 L 80.372 135.151 L 30.372 107.826" fill="none" vector-effect="non-scaling-stroke" stroke-width="3" stroke="rgb(255,255,255)" stroke-linejoin="miter" stroke-linecap="square" stroke-miterlimit="3"/><path d=" M 53.047 68.291 L 79.791 54.919 L 79.791 46.052 L 79.791 32.244" fill="none" vector-effect="non-scaling-stroke" stroke-width="3" stroke="rgb(89,203,232)" stroke-linejoin="miter" stroke-linecap="square" stroke-miterlimit="3"/><path d=" M 53.047 68.291 L 53.047 95.035 L 80.095 107.826 L 104.791 95.035 L 104.791 68.291 L 80.095 54.919" fill="rgb(89,203,232)" vector-effect="non-scaling-stroke" stroke-width="3" stroke="rgb(89,203,232)" stroke-linejoin="miter" stroke-linecap="square" stroke-miterlimit="3"/><path d=" M 30.372 54.919 L 80.372 82.244 L 128.628 54.919" fill="none" vector-effect="non-scaling-stroke" stroke-width="3" stroke="rgb(255,255,255)" stroke-linejoin="miter" stroke-linecap="square" stroke-miterlimit="3"/><line x1="80.372" y1="82.244" x2="80.372" y2="135.151" vector-effect="non-scaling-stroke" stroke-width="3" stroke="rgb(255,255,255)" stroke-linejoin="miter" stroke-linecap="square" stroke-miterlimit="3"/><circle vector-effect="non-scaling-stroke" cx="79.79069767441854" cy="28.17441860465118" r="5.813953488372093" fill="rgb(89,203,232)"/><circle vector-effect="non-scaling-stroke" cx="79.49999999999987" cy="132.82558139534882" r="5.813953488372093" fill="rgb(89,203,232)"/><circle vector-effect="non-scaling-stroke" cx="128.62790697674427" cy="108.40697674418598" r="5.8139534883721" fill="rgb(89,203,232)"/><circle vector-effect="non-scaling-stroke" cx="30.3720930232557" cy="108.40697674418594" r="5.8139534883720945" fill="rgb(89,203,232)"/><circle vector-effect="non-scaling-stroke" cx="30.3720930232557" cy="55.49999999999995" r="5.8139534883720945" fill="rgb(89,203,232)"/><circle vector-effect="non-scaling-stroke" cx="128.62790697674427" cy="55.49999999999995" r="5.8139534883721" fill="rgb(89,203,232)"/></g></svg>